<?xml version="1.0" encoding="UTF-8"?>
<svg version="1.1" xmlns="http://www.w3.org/2000/svg" width="512" height="512">
<path d="M0 0 C7.84531332 4.81896551 15.76169181 9.51423378 23.6875 14.19921875 C34.29974989 20.47805906 44.86851501 26.82215762 55.39648438 33.24121094 C64.78592711 38.96373903 74.22493989 44.59852028 83.6875 50.19921875 C95.14158902 56.97908707 106.55545528 63.82018742 117.91357422 70.75976562 C123.09205962 73.92094144 128.27792977 77.06043487 133.5234375 80.109375 C142.40520432 85.28360796 150.55167603 90.1955688 157.6875 97.69921875 C158.24050781 98.23289062 158.79351562 98.7665625 159.36328125 99.31640625 C174.54597037 115.0875717 174.13447825 136.75419445 174.09155273 157.07568359 C174.09726336 159.52466644 174.10423028 161.97364663 174.11235046 164.42262268 C174.12836965 170.35507328 174.1303981 176.28742586 174.12513756 182.21988653 C174.12107707 187.04732439 174.12256157 191.87473111 174.12788582 196.70216751 C174.12863424 197.39226676 174.12938266 198.082366 174.13015376 198.79337735 C174.13168542 200.19583118 174.13322377 201.598285 174.13476873 203.00073881 C174.14845988 216.11824797 174.14307997 229.23569729 174.13158352 242.35320504 C174.12165455 254.32080572 174.13459198 266.28825171 174.15851771 278.25582854 C174.18297333 290.58254032 174.19250077 302.90918025 174.18586498 315.23591578 C174.18238709 322.14108126 174.18450959 329.0461279 174.20211601 335.95127487 C174.21847547 342.44720573 174.21355635 348.942915 174.19481087 355.43884087 C174.19114323 357.81226612 174.19417966 360.18571348 174.20469666 362.55911827 C174.291951 383.89127476 172.31230999 403.46504326 156.84375 419.70703125 C143.04279514 432.45791346 127.09155285 436.9497018 108.734375 436.7734375 C107.13795166 436.765401 107.13795166 436.765401 105.50927734 436.75720215 C102.90193446 436.74330217 100.29476007 436.72383096 97.6875 436.69921875 C97.68603344 435.48792392 97.68456688 434.27662909 97.68305588 433.02862835 C97.64732048 404.24693745 97.59103112 375.46533549 97.50957905 346.68373932 C97.49956211 343.13787415 97.48971789 339.59200852 97.47998047 336.04614258 C97.4780391 335.34025229 97.47609772 334.63436201 97.47409752 333.9070811 C97.44311304 322.49139802 97.42610681 311.07573501 97.41430578 299.66001781 C97.40187577 287.93828893 97.37433276 276.2166651 97.33288693 264.49500257 C97.31027064 257.91452691 97.29458944 251.33420106 97.29561615 244.75368309 C97.29636264 238.55583155 97.27841555 232.35831119 97.24633217 226.16054535 C97.23783606 223.88986281 97.23608124 221.61914311 97.24169731 219.34845161 C97.27204232 205.18988622 97.27420312 193.07827961 87.73046875 181.703125 C78.84185419 172.98446482 67.38272966 170.22966577 55.2890625 170.31826782 C54.29118713 170.31358785 53.29331177 170.30890788 52.26519775 170.30408609 C48.94749349 170.29219459 45.63020676 170.30157053 42.3125 170.31103516 C39.92333741 170.30696687 37.5341767 170.30162355 35.14501953 170.29510498 C29.34503327 170.2828716 23.54517794 170.28462606 17.74518776 170.2933429 C13.02868318 170.30013607 8.3122112 170.30102913 3.59570312 170.29777145 C2.92275711 170.29731175 2.2498111 170.29685206 1.55647278 170.29637843 C0.18911742 170.29541919 -1.17823792 170.29444655 -2.54559326 170.29346065 C-15.34768131 170.28491937 -28.14970477 170.29472103 -40.95178223 170.31086175 C-51.92101215 170.3242638 -62.8901468 170.32193535 -73.859375 170.30810547 C-86.61769172 170.29202731 -99.37595191 170.28574322 -112.13427734 170.29494226 C-113.49641926 170.29589784 -114.85856119 170.29684096 -116.22070312 170.29777145 C-116.89078903 170.29823428 -117.56087494 170.29869711 -118.25126648 170.29917396 C-122.95854049 170.30175715 -127.66577845 170.29740738 -132.37304688 170.29033279 C-138.71623244 170.28165022 -145.05923855 170.2877089 -151.40240479 170.30501556 C-153.72674258 170.30897347 -156.05109554 170.30785833 -158.37542725 170.30122757 C-161.55517442 170.29299463 -164.73435136 170.30335518 -167.9140625 170.31826782 C-169.28422516 170.30822957 -169.28422516 170.30822957 -170.68206787 170.29798853 C-180.80822591 170.38971033 -190.35675432 173.30087843 -198.3125 179.69921875 C-206.5900716 188.76379207 -209.77674401 197.67003088 -209.71122742 209.77894592 C-209.71787424 210.75443766 -209.72452107 211.72992939 -209.73136932 212.73498148 C-209.74992482 215.98236457 -209.74739901 219.2293768 -209.74487305 222.47680664 C-209.75389473 224.8130851 -209.76422295 227.14935882 -209.77575684 229.48562622 C-209.80330499 235.81341641 -209.81260846 242.14111672 -209.81861091 248.46895909 C-209.82704829 254.41639114 -209.84917972 260.36375915 -209.87122939 266.31115394 C-209.91443985 278.08591774 -209.94443932 289.86067627 -209.96606445 301.63549805 C-209.98709139 313.06911811 -210.0143814 324.50269513 -210.05004883 335.9362793 C-210.05224765 336.64183274 -210.05444648 337.34738618 -210.05671193 338.07432003 C-210.06778201 341.61410953 -210.07897474 345.15389863 -210.09022844 348.69368756 C-210.18333219 378.02882371 -210.25474658 407.36399176 -210.3125 436.69921875 C-213.96610368 436.74510127 -217.61963184 436.77253113 -221.2734375 436.796875 C-222.81052368 436.81651306 -222.81052368 436.81651306 -224.37866211 436.83654785 C-241.28354769 436.92083627 -256.90468779 431.67987323 -269.3203125 419.85546875 C-285.63718057 402.19485861 -286.76439457 382.12343901 -286.71655273 359.34448242 C-286.7222623 356.88579499 -286.72922882 354.42711021 -286.73735046 351.96842957 C-286.75338028 346.0084172 -286.75539542 340.04855669 -286.75013756 334.08853766 C-286.74607897 329.23866935 -286.74755935 324.38883207 -286.75288582 319.53896523 C-286.75363424 318.84595513 -286.75438266 318.15294503 -286.75515376 317.43893463 C-286.75668541 316.03060226 -286.75822376 314.62226991 -286.75976873 313.21393756 C-286.77346464 300.0368213 -286.76807687 286.85976458 -286.75658352 273.68264971 C-286.74665666 261.66002023 -286.75958748 249.63754478 -286.78351771 237.61493906 C-286.80797314 225.23401841 -286.81750066 212.8531693 -286.81086498 200.47222501 C-286.80738671 193.5357457 -286.80951198 186.5993847 -286.82711601 179.66292381 C-286.84347531 173.13663452 -286.83855663 166.61058974 -286.81981087 160.08429146 C-286.81614301 157.69957915 -286.81918029 155.31484484 -286.82969666 152.93015289 C-286.91731551 131.40568536 -284.95123469 113.57070076 -269.75390625 97.0859375 C-263.01236629 90.49540803 -255.81415464 85.80963253 -247.7121582 81.10009766 C-244.10854079 79.0051183 -240.51840735 76.88718964 -236.92578125 74.7734375 C-236.19618195 74.34509613 -235.46658264 73.91675476 -234.71487427 73.47543335 C-227.87093839 69.45326495 -221.08704816 65.33685231 -214.3125 61.19921875 C-203.68060301 54.71370634 -192.98879707 48.33442424 -182.27148438 41.99121094 C-172.91565673 36.45216629 -163.59571469 30.85907233 -154.3125 25.19921875 C-142.94651611 18.27189166 -131.52504829 11.44250094 -120.06298828 4.67529297 C-113.75133765 0.94627357 -107.45863771 -2.80565956 -101.22265625 -6.66015625 C-62.30826873 -30.63290087 -36.91598055 -22.67795151 0 0 Z M-111.25 93.69921875 C-114.35637103 98.21757662 -115.0161535 102.30784542 -114.3125 107.69921875 C-112.38832899 113.15286917 -109.38482033 115.89711359 -104.3125 118.69921875 C-101.18088669 119.27167884 -98.10701182 119.25663226 -94.92993164 119.23266602 C-94.00395676 119.24128159 -93.07798187 119.24989716 -92.12394714 119.2587738 C-89.07322977 119.28141428 -86.02343246 119.27469811 -82.97265625 119.265625 C-80.84565458 119.27086158 -78.71865524 119.27713818 -76.59165955 119.28440857 C-72.13724834 119.29480938 -67.68315665 119.29025595 -63.22875977 119.27563477 C-57.52782751 119.25845134 -51.82790353 119.28193907 -46.12708378 119.31712437 C-41.73548232 119.33911291 -37.34412155 119.33765323 -32.95248222 119.32935905 C-30.85098604 119.32854027 -28.74947206 119.3353897 -26.64802742 119.35013008 C-23.70621381 119.36760165 -20.76620479 119.35301111 -17.82446289 119.33032227 C-16.96138519 119.34201447 -16.0983075 119.35370667 -15.20907593 119.36575317 C-9.31072957 119.27346125 -5.57842788 117.8425504 -1.3125 113.69921875 C1.72884371 109.28436498 2.59566084 104.97471484 1.6875 99.69921875 C-0.23805813 94.33594103 -3.28042826 91.42492428 -8.3125 88.69921875 C-12.41168055 87.45437619 -16.46902185 87.54405329 -20.71777344 87.53808594 C-21.9868454 87.53063858 -21.9868454 87.53063858 -23.28155518 87.52304077 C-26.07833676 87.50844584 -28.8750616 87.50162112 -31.671875 87.49609375 C-33.61997478 87.49033953 -35.56807455 87.48458183 -37.51617432 87.4788208 C-41.60160587 87.468318 -45.68701779 87.46247081 -49.77246094 87.45898438 C-54.99554569 87.45350519 -60.21836903 87.42948635 -65.44137192 87.40101242 C-69.46666205 87.38234437 -73.49188978 87.37717819 -77.51721954 87.3756485 C-79.44205401 87.37263019 -81.36688758 87.36462954 -83.29167938 87.35146332 C-85.99120179 87.33431773 -88.69009296 87.33630389 -91.38964844 87.34277344 C-92.17746704 87.33355865 -92.96528564 87.32434387 -93.77697754 87.31484985 C-100.38463944 87.36420072 -106.72050916 88.46806509 -111.25 93.69921875 Z " fill="#000000" transform="translate(312.3125,49.30078125)"/>
<path d="M0 0 C1.49015444 -0.00202548 2.9803079 -0.00494084 4.47045898 -0.00869751 C7.58033771 -0.01309863 10.6899564 -0.00676182 13.79980469 0.00732422 C17.76385707 0.02441504 21.72729987 0.01456188 25.69132996 -0.00339317 C28.76449077 -0.01429128 31.8375097 -0.01075725 34.91067505 -0.0030098 C36.37134882 -0.00102439 37.83203594 -0.00340797 39.29269409 -0.01044846 C57.1500168 -0.07765614 57.1500168 -0.07765614 64.12109375 5.4140625 C65.05115234 6.52007812 65.05115234 6.52007812 66 7.6484375 C66.63808594 8.37546875 67.27617187 9.1025 67.93359375 9.8515625 C71.18572073 14.93642291 71.8133377 20.26773853 71.8371582 26.20068359 C71.84669022 27.51249603 71.85622223 28.82430847 71.86604309 30.1758728 C71.8657816 31.59120714 71.86484426 33.0065415 71.86328125 34.421875 C71.86717476 35.89246744 71.87151077 37.36305877 71.87626648 38.83364868 C71.88370424 41.90834201 71.88345544 44.98292047 71.87817383 48.05761719 C71.8723853 51.97686021 71.88930683 55.89562971 71.9125185 59.81479454 C71.92732825 62.85019632 71.92811771 65.88548599 71.92500877 68.92091751 C71.92551845 70.36485353 71.93068901 71.80879642 71.94082069 73.25269699 C72.05800303 92.28771513 72.05800303 92.28771513 65.75 99.2734375 C65.28980469 99.80710937 64.82960938 100.34078125 64.35546875 100.890625 C59.56969426 104.91526324 55.17120552 105.77898238 49.03173828 105.81835938 C48.3024411 105.82682892 47.57314392 105.83529846 46.82174683 105.84402466 C44.42525502 105.86730839 42.02940858 105.86841887 39.6328125 105.8671875 C37.9566116 105.87429473 36.28041312 105.88199455 34.60421753 105.89025879 C31.09561395 105.90368408 27.58723531 105.90528139 24.07861328 105.89941406 C19.59737282 105.89352224 15.11721737 105.92409635 10.6361866 105.96453094 C7.17530573 105.99046764 3.71468398 105.99327994 0.25371933 105.98963928 C-1.39760182 105.99132521 -3.04893563 106.00091678 -4.70016098 106.01878357 C-15.05560554 106.11850202 -22.06044067 105.6301709 -29.75 98.1484375 C-34.98072926 89.62428612 -34.88365435 80.91185961 -34.8359375 71.14453125 C-34.83796288 69.67440141 -34.84087816 68.20427255 -34.84463501 66.73414612 C-34.84903521 63.66714829 -34.84270143 60.60041421 -34.82861328 57.53344727 C-34.81150729 53.62085996 -34.82138574 49.70888956 -34.83933067 45.79632473 C-34.85021835 42.76523771 -34.84669973 39.73429478 -34.8389473 36.7032032 C-34.83695981 35.26124051 -34.83935299 33.81926433 -34.84638596 32.37731743 C-34.88261515 22.86571142 -34.7871257 14.63966748 -28.3125 7.0859375 C-27.79429687 6.45042969 -27.27609375 5.81492187 -26.7421875 5.16015625 C-19.00050194 -0.75764068 -9.27277536 -0.04469551 0 0 Z " fill="#000000" transform="translate(237.4375,262.6015625)"/>
<path d="M0 0 C1.07887733 -0.01007584 1.07887733 -0.01007584 2.17955017 -0.02035522 C4.55434101 -0.03933167 6.92884901 -0.04325962 9.30371094 -0.04541016 C10.96034866 -0.05183985 12.61698525 -0.05856834 14.27362061 -0.06558228 C17.74705638 -0.07755523 21.22039271 -0.08126324 24.69384766 -0.08007812 C29.13013899 -0.07987528 33.56578722 -0.10714106 38.00192642 -0.14162254 C41.42503751 -0.16393895 44.84799521 -0.16791417 48.27117157 -0.16685867 C49.90574096 -0.1692089 51.54031495 -0.17799969 53.17481232 -0.19352341 C69.04290863 -0.33008308 69.04290863 -0.33008308 75.78808594 4.29052734 C77.84667969 6.32568359 77.84667969 6.32568359 79.22558594 8.35302734 C79.69867188 9.02462891 80.17175781 9.69623047 80.65917969 10.38818359 C83.02270349 14.37100744 82.93610747 17.8497859 82.98095703 22.38891602 C82.99322327 23.46757431 82.99322327 23.46757431 83.0057373 24.56802368 C83.03055017 26.94817278 83.04709907 29.32826229 83.06152344 31.70849609 C83.06684711 32.52320185 83.07217079 33.3379076 83.07765579 34.17730141 C83.10437291 38.4918079 83.12375009 42.80628563 83.13818359 47.12084961 C83.1515078 50.68361166 83.17933365 54.24579891 83.22021484 57.80834961 C83.26965561 62.11720746 83.29431876 66.42554509 83.30141068 70.73467445 C83.3081042 72.37207023 83.32327672 74.00945526 83.34730148 75.64668846 C83.57610405 92.18619171 83.57610405 92.18619171 77.78808594 98.29052734 C77.32357025 98.78526047 76.85905457 99.27999359 76.38046265 99.78971863 C71.06365839 104.77474094 64.81131484 105.53789734 57.78637695 105.56518555 C57.12520874 105.57029648 56.46404053 105.57540741 55.78283691 105.58067322 C53.61912732 105.59445871 51.4557402 105.593621 49.29199219 105.59130859 C47.77416366 105.59520139 46.2563362 105.59953725 44.73851013 105.60429382 C41.56546488 105.61173213 38.39253096 105.61148203 35.21948242 105.60620117 C31.1701107 105.60040735 27.1211965 105.61734674 23.07190037 105.64054585 C19.93960443 105.65533623 16.80741737 105.65614775 13.6750927 105.65303612 C12.18288199 105.65354659 10.69066474 105.65873243 9.19848824 105.66884804 C0.14649244 105.72269244 -7.12102876 105.53018163 -14.96191406 100.54052734 C-20.81532277 94.68711863 -22.32315012 88.62046909 -22.38891602 80.5534668 C-22.39548721 79.88458939 -22.40205841 79.21571198 -22.40882874 78.52656555 C-22.42849304 76.31897859 -22.44021055 74.11145954 -22.45019531 71.90380859 C-22.45427084 71.14643087 -22.45834637 70.38905315 -22.46254539 69.60872459 C-22.48337954 65.59779512 -22.49769121 61.58689955 -22.50708008 57.57592773 C-22.51812314 53.45139422 -22.55250579 49.32740336 -22.59225178 45.2030611 C-22.61851008 42.01583413 -22.62678015 38.82873452 -22.63036156 35.64140892 C-22.63520584 34.12208591 -22.64675772 32.60276777 -22.66539955 31.08355141 C-22.87145969 13.17380723 -22.87145969 13.17380723 -16.43232727 6.42549133 C-11.14735617 1.59500834 -7.24772042 0.04252394 0 0 Z " fill="#000000" transform="translate(160.2119140625,380.70947265625)"/>
<path d="M0 0 C0.71910553 -0.00817749 1.43821106 -0.01635498 2.17910767 -0.02478027 C4.55925677 -0.04959313 6.93934627 -0.06614204 9.31958008 -0.08056641 C10.13428583 -0.08589008 10.94899158 -0.09121376 11.78838539 -0.09669876 C16.10289188 -0.12341588 20.41736961 -0.14279306 24.73193359 -0.15722656 C28.29469564 -0.17055077 31.8568829 -0.19837662 35.41943359 -0.23925781 C39.72829144 -0.28869858 44.03662907 -0.31336173 48.34575844 -0.32045364 C49.98315421 -0.32714717 51.62053925 -0.34231968 53.25777245 -0.36634445 C62.93657415 -0.50023811 70.11217027 -0.379667 77.40080261 6.63589478 C82.21810839 11.86870754 83.14988006 17.26481001 83.17626953 24.17285156 C83.18138046 24.84362732 83.18649139 25.51440308 83.1917572 26.20550537 C83.2055753 28.40711572 83.20470222 30.60841022 83.20239258 32.81005859 C83.2062841 34.3517366 83.21061971 35.89341354 83.21537781 37.43508911 C83.22282352 40.66118856 83.22256098 43.88717854 83.21728516 47.11328125 C83.21149605 51.2310602 83.22841572 55.34838854 83.25162983 59.46609306 C83.26642043 62.64900294 83.2672316 65.83180565 83.2641201 69.0147438 C83.26463075 70.53207414 83.26981999 72.04941088 83.27993202 73.56670761 C83.38217239 91.05382551 83.38217239 91.05382551 77.58911133 97.94287109 C70.95331076 103.49842506 66.78387454 105.30509712 58.24047852 105.35400391 C57.24938332 105.36145126 57.24938332 105.36145126 56.23826599 105.36904907 C54.05832871 105.38362002 51.87846425 105.39046498 49.69848633 105.39599609 C48.17637125 105.40175269 46.65425618 105.40751036 45.13214111 105.41326904 C41.94119938 105.42376531 38.75028273 105.42961663 35.55932617 105.43310547 C31.48635787 105.43858057 27.41372548 105.46259308 23.34086227 105.49107742 C20.19570981 105.50977709 17.05063699 105.51491333 13.90543365 105.51644135 C12.40484027 105.51945301 10.9042478 105.52743093 9.40370941 105.54062653 C-8.76806908 105.68899277 -8.76806908 105.68899277 -15.91088867 99.38037109 C-16.45358398 98.92017578 -16.9962793 98.45998047 -17.55541992 97.98583984 C-21.61571798 93.26767071 -22.47698405 88.85517796 -22.50244141 82.75390625 C-22.50930466 82.03436264 -22.51616791 81.31481903 -22.52323914 80.57347107 C-22.54144776 78.20942095 -22.5376778 75.84603838 -22.53198242 73.48193359 C-22.53654765 71.82815334 -22.54185423 70.17437499 -22.54786682 68.52059937 C-22.55678668 65.05906455 -22.55438837 61.59776056 -22.54443359 58.13623047 C-22.53295527 53.71565398 -22.55314319 49.29587767 -22.58235073 44.87540627 C-22.60076161 41.46085608 -22.60041042 38.04649582 -22.59471321 34.63190842 C-22.59456054 33.00293227 -22.60055987 31.37394281 -22.61300468 29.74501419 C-22.71666057 13.95138337 -22.71666057 13.95138337 -18.09838867 7.19287109 C-16.06323242 5.13427734 -16.06323242 5.13427734 -14.03588867 3.75537109 C-13.36428711 3.28228516 -12.69268555 2.80919922 -12.00073242 2.32177734 C-8.01790858 -0.04174646 -4.53913012 0.04484956 0 0 Z " fill="#000000" transform="translate(291.098388671875,380.80712890625)"/>
</svg>
