<svg width="1920" height="1080" viewBox="0 0 1920 1080" fill="none" xmlns="http://www.w3.org/2000/svg">
<rect width="1920" height="1080" fill="#21B23B"/>
<path fill-rule="evenodd" clip-rule="evenodd" d="M614.563 387.162C598.062 391.184 587.846 404.141 587.772 421.142C587.708 436.005 593.444 446.177 605.523 452.616C613.236 456.728 631.74 457.147 638.703 453.368C645.353 449.758 650.899 443.715 654.618 436.026C657.302 430.476 657.763 427.429 657.17 419.143C656.012 402.943 647.695 392.474 632.296 387.833C624.823 385.583 621.553 385.459 614.563 387.162ZM320 550.181V691.983L404.753 691.974C451.368 691.969 493.345 691.336 498.038 690.566C508.566 688.839 525.164 682.355 533.201 676.83C542.078 670.728 546.36 666.54 553.273 657.21C570.768 633.597 573.465 599.125 559.995 571.301C556.217 563.496 539.533 544.782 533.532 541.619C531.102 540.338 531.481 539.244 537.603 529.911C546.547 516.28 550.517 504.218 551.54 487.577C554.066 446.482 528.289 418.226 481.219 410.494C471.499 408.898 450.521 408.39 394.206 408.386L320 408.38V550.181ZM472.179 459.781C488.014 463.391 495.506 473.094 495.388 489.84C495.301 502.242 491.13 512.006 483.401 517.911L477.692 522.273L428.228 522.709L378.762 523.145V490.653V458.161L422.08 458.197C446.088 458.218 468.421 458.924 472.179 459.781ZM1223.28 473.874C1182.07 481.886 1151.1 510.435 1139.97 550.668C1136.7 562.504 1136.31 603.487 1139.39 612.785C1152.1 651.198 1171.56 672.938 1204.9 685.974C1226.08 694.258 1236.44 694.982 1334.05 694.991L1422.22 695L1427.82 687.834C1461.25 645.03 1478.18 622.705 1479.52 619.682C1481.1 616.093 1481.19 616.14 1486.06 623.366C1488.77 627.392 1501.47 643.799 1514.28 659.826L1537.56 688.966H1569.28H1601L1595.96 682.313C1589.35 673.586 1536.85 605.304 1526.03 591.361L1517.6 580.495L1541.92 549.877C1555.29 533.035 1572.47 511.561 1580.08 502.157C1587.7 492.753 1595.18 483.079 1596.71 480.661L1599.5 476.263L1568.09 476.346L1536.68 476.429L1512.44 506.894C1499.1 523.649 1486.92 539.564 1485.37 542.261C1483.81 544.959 1482.15 547.164 1481.68 547.164C1481.21 547.164 1479.53 544.959 1477.95 542.261C1475.22 537.585 1462.24 520.682 1437.99 490.217L1426.89 476.263H1395.47C1366 476.263 1364.14 476.426 1365.5 478.903C1366.3 480.354 1374.59 491.047 1383.92 502.663C1439.77 572.186 1445.86 580.403 1443.76 583.357C1442.65 584.905 1431.58 599.789 1419.15 616.434L1396.55 646.698L1318.95 646.223C1236.41 645.718 1234.98 645.599 1220.23 638.049C1211.23 633.444 1200.88 621.554 1197.13 611.521C1195.35 606.762 1193.9 602.213 1193.9 601.414C1193.9 600.503 1223.25 599.963 1272.8 599.963H1351.71L1352.76 589.326C1354.43 572.364 1351.06 547.955 1344.85 532.079C1333.62 503.338 1311.9 483.776 1282.04 475.511C1269.73 472.103 1237.07 471.193 1223.28 473.874ZM1010.42 476.843C997.436 480.146 983.283 488.31 971.592 499.243L960.616 509.505L959.079 502.313C958.232 498.357 957.069 491.555 956.494 487.2L955.446 479.28H930.027H904.607V585.632V691.983H933.145H961.684L962.2 628.248C962.691 567.326 962.861 564.075 966.028 554.61C970.502 541.251 977.897 532.102 988.623 526.66C996.566 522.631 998.557 522.278 1013.09 522.323C1032.02 522.384 1041.76 525.858 1049.99 535.485C1060.32 547.565 1060.35 547.84 1060.95 623.722L1061.5 691.983L1089.65 691.984H1117.81L1117.01 613.918C1116.28 542.755 1115.96 535.202 1113.42 528.522C1109.24 517.537 1104.04 508.873 1096.73 500.739C1088.25 491.294 1080.76 486.182 1067.1 480.501C1057.18 476.376 1054.08 475.845 1037.2 475.361C1024.72 475.002 1015.68 475.503 1010.42 476.843ZM594.223 585.632V692.049L622.474 691.639L650.725 691.229V585.632V480.035L622.474 479.624L594.223 479.214V585.632ZM687.639 503.399V527.517L744.518 527.912L801.397 528.308L795.954 532.079C792.96 534.153 781.095 546.06 769.587 558.537C746.902 583.134 693.053 642.141 684.124 652.189L678.599 658.406V675.195V691.983H778.635C857.371 691.983 878.785 691.582 879.208 690.097C879.503 689.061 879.541 678.2 879.292 665.961L878.837 643.71H817.229C783.343 643.71 755.264 643.134 754.828 642.429C754.393 641.725 755.797 640.204 757.947 639.053C760.099 637.901 776.808 620.996 795.08 601.489C831.635 562.462 849.734 543.283 866.452 525.858L877.486 514.357V496.819V479.28H782.563H687.639V503.399ZM1263.15 519.462C1280.53 523.061 1294.85 539.573 1294.85 556.013V560.741H1244.34H1193.84L1194.82 556.592C1198.22 542.242 1210.07 527.416 1222.51 521.952C1231.62 517.948 1250.32 516.804 1263.15 519.462ZM493.273 574.509C503.934 579.471 509.818 589.747 509.837 603.443C509.862 619.756 501.742 632.511 488.356 637.184C481.323 639.639 474.978 639.939 429.99 639.939H379.515L379.109 606.787C378.884 588.554 378.967 572.94 379.291 572.091C379.687 571.058 397.775 570.795 433.941 571.301C479.599 571.937 488.819 572.437 493.273 574.509Z" fill="white"/>
</svg>
