<svg width="1200" height="1200" viewBox="0 0 1200 1200" fill="none" xmlns="http://www.w3.org/2000/svg">
<rect width="1200" height="1200" rx="170" fill="#0BC266"/>
<path d="M1026.76 647.565C1042.92 687.202 1051 727.334 1051 767.963C1051 807.6 1042.49 847.237 1025.48 886.874C1008.47 925.52 980.825 960.203 942.547 990.922C904.27 1020.65 855.36 1035.51 795.818 1035.51H792.133C789.49 1035.51 786.855 1035.8 784.232 1036.18C780.438 1036.73 776.645 1037 772.851 1037H259.934C236.968 1036.01 217.404 1026.6 201.242 1008.76C185.931 989.931 177.851 967.139 177 940.384V259.616C177.851 232.861 185.931 210.565 201.242 192.728C217.404 173.9 236.968 163.991 259.934 163H698.848C702.642 163 706.436 163.274 710.229 163.821C712.852 164.2 715.487 164.486 718.13 164.486H721.815C781.357 166.468 830.267 182.323 868.544 212.051C906.822 241.779 934.467 275.966 951.479 314.612C968.491 352.268 976.997 390.418 976.997 429.065C976.997 468.702 968.916 507.348 952.755 545.003C951.675 547.518 952.006 550.946 953.957 552.602C986.915 580.574 1011.18 612.229 1026.76 647.565ZM803.473 837.823C819.635 838.814 832.819 835.346 843.026 827.418C854.084 819.491 862.165 810.573 867.269 800.663C872.372 789.763 874.924 778.863 874.924 767.963C874.924 761.026 872.372 751.612 867.269 739.721C862.165 726.839 854.084 716.434 843.026 708.507C832.819 700.579 819.635 696.12 803.473 695.129H397.248C370.739 695.129 349.248 720.173 349.248 751.065V797.69C349.248 824.446 361.157 837.823 384.974 837.823H803.473ZM770.299 482.575C780.507 475.638 788.162 467.711 793.266 458.793C798.369 448.883 800.921 438.974 800.921 429.065C800.921 419.155 798.369 409.742 793.266 400.823C788.162 390.914 780.081 382.491 769.023 375.554C758.816 367.627 745.632 363.168 729.47 362.177H384.974C361.157 362.177 349.248 375.554 349.248 402.31V440.016C349.248 470.909 370.739 495.952 397.248 495.952H729.47C745.632 494.961 759.241 490.502 770.299 482.575Z" fill="white"/>
</svg>
