<?xml version="1.0" standalone="no"?>
<!DOCTYPE svg PUBLIC "-//W3C//DTD SVG 20010904//EN"
 "http://www.w3.org/TR/2001/REC-SVG-20010904/DTD/svg10.dtd">
<svg version="1.0" xmlns="http://www.w3.org/2000/svg"
 width="512.000000pt" height="512.000000pt" viewBox="0 0 512.000000 512.000000"
 preserveAspectRatio="xMidYMid meet">

<g transform="translate(0.000000,512.000000) scale(0.100000,-0.100000)"
fill="#000000" stroke="none">
<path d="M2310 4473 c-58 -22 -85 -94 -55 -148 22 -43 52 -55 130 -55 l65 0 0
-59 0 -58 -52 -7 c-314 -40 -618 -256 -781 -556 -35 -64 -97 -233 -97 -264 0
-15 93 -16 1040 -16 947 0 1040 1 1040 16 0 31 -62 200 -97 264 -161 295 -448
504 -760 552 l-73 12 0 58 0 58 65 0 c78 0 108 12 130 55 23 41 14 93 -21 126
-25 24 -27 24 -272 26 -136 1 -254 -1 -262 -4z m133 -554 c37 -19 57 -52 57
-95 0 -62 -26 -87 -122 -118 -115 -38 -180 -78 -279 -173 -55 -53 -97 -85
-116 -89 -58 -12 -123 46 -123 108 0 30 27 72 82 129 102 105 221 179 363 225
80 26 107 29 138 13z"/>
<path d="M125 3391 c-51 -23 -101 -79 -117 -132 -11 -38 -3 -112 79 -730 78
-590 95 -697 116 -742 29 -63 81 -119 140 -148 23 -12 43 -23 45 -24 2 -2 -40
-199 -93 -439 -88 -395 -96 -439 -84 -467 14 -36 62 -69 99 -69 34 0 87 34 96
62 4 13 51 219 104 458 l97 435 383 0 384 0 112 -450 c107 -427 114 -451 144
-477 44 -40 92 -38 136 6 25 25 34 43 34 68 0 18 -47 219 -104 446 l-104 412
27 0 c37 1 101 32 133 66 61 65 71 135 37 266 -36 143 -82 208 -181 258 l-61
30 -368 0 -368 0 -10 38 c-126 475 -275 1021 -286 1041 -19 38 -64 78 -107 95
-55 23 -230 22 -283 -3z"/>
<path d="M4710 3394 c-41 -18 -86 -58 -105 -94 -7 -14 -74 -255 -149 -535 -75
-281 -139 -518 -142 -527 -5 -17 -32 -18 -373 -18 l-368 0 -61 -30 c-99 -50
-145 -115 -181 -258 -26 -99 -26 -155 -2 -207 31 -68 113 -125 182 -125 14 0
0 -67 -87 -413 -57 -226 -104 -427 -104 -445 0 -25 9 -43 34 -68 44 -44 92
-46 136 -6 30 26 37 50 144 477 l112 450 384 0 383 0 97 -435 c53 -239 100
-445 104 -458 9 -28 62 -62 96 -62 39 0 87 35 99 72 10 29 -1 87 -84 461 -52
234 -95 431 -95 435 0 5 18 17 41 27 22 10 58 36 81 58 80 78 80 78 179 819
49 370 89 681 89 692 0 74 -55 155 -125 187 -52 24 -232 26 -285 3z"/>
<path d="M1014 3079 c-44 -22 -54 -58 -54 -199 0 -143 10 -178 57 -199 17 -8
460 -11 1499 -11 l1476 0 29 29 29 29 0 152 0 152 -29 29 -29 29 -1479 -1
c-972 0 -1485 -4 -1499 -10z"/>
<path d="M2350 1785 c0 -552 -2 -671 -14 -700 -11 -26 -44 -53 -150 -124 -74
-50 -140 -100 -146 -110 -13 -26 -13 -124 1 -154 26 -57 27 -57 519 -57 492 0
493 0 519 57 14 30 14 128 1 154 -6 10 -72 60 -146 110 -106 71 -139 98 -150
124 -12 29 -14 148 -14 700 l0 665 -210 0 -210 0 0 -665z"/>
</g>
</svg>
