<svg version="1.1" id="Layer_1" xmlns="http://www.w3.org/2000/svg" xmlns:xlink="http://www.w3.org/1999/xlink" x="0px" y="0px"
	 width="100%" viewBox="0 0 1080 737" enable-background="new 0 0 1080 737" xml:space="preserve">
<path fill="#21B23B" opacity="1.000000" stroke="none" 
	d="
M669.000000,738.000000 
	C446.000000,738.000000 223.500031,738.000000 1.000030,738.000000 
	C1.000020,492.333374 1.000020,246.666718 1.000010,1.000063 
	C360.999969,1.000042 720.999939,1.000042 1081.000000,1.000021 
	C1081.000000,246.666611 1081.000000,492.333221 1081.000000,737.999878 
	C943.833313,738.000000 806.666687,738.000000 669.000000,738.000000 
M505.093048,324.160431 
	C504.271454,323.552002 503.488495,322.510559 502.619537,322.433044 
	C501.191589,322.305634 499.707703,323.008789 498.247772,323.007263 
	C459.506317,322.966888 420.764862,322.864838 382.023468,322.883636 
	C380.900391,322.884186 379.777893,324.081818 377.993469,325.070648 
	C377.349701,327.019196 376.247833,328.943542 376.143555,330.920563 
	C375.749756,338.388153 375.711823,345.873871 375.474304,353.350708 
	C375.368073,356.693726 378.582306,360.870514 381.971527,360.846588 
	C399.768066,360.720947 417.562805,360.363342 435.359192,360.190155 
	C438.065491,360.163818 440.777069,360.680786 443.486206,360.946442 
	C443.531830,361.488861 443.577454,362.031281 443.623077,362.573700 
	C437.384308,369.064026 431.027588,375.446075 424.940338,382.075562 
	C419.013519,388.530304 413.518036,395.382660 407.556213,401.803284 
	C397.008759,413.162445 385.967346,424.045624 375.639648,435.634125 
	C371.488434,440.292206 369.445190,444.777710 370.010162,450.803070 
	C370.273376,453.609863 370.062317,456.461395 370.060272,459.292664 
	C370.054413,467.466980 371.512177,468.937866 379.631622,468.936890 
	C417.937134,468.932281 456.242676,468.927002 494.548187,468.922607 
	C497.712250,468.922272 500.885437,469.078522 504.037964,468.888977 
	C507.754120,468.665558 509.851746,466.514801 509.885651,462.758972 
	C509.957275,454.825500 510.195801,446.875671 509.793274,438.961670 
	C509.495667,433.111053 506.791748,428.311584 499.051666,430.517700 
	C497.633453,430.921936 496.095642,431.031921 494.609680,431.054077 
	C475.812775,431.334747 457.015533,431.626984 438.217346,431.733948 
	C436.550446,431.743439 434.876312,430.478027 432.777985,429.632477 
	C435.435425,426.690613 437.409515,424.518646 439.368744,422.333374 
	C442.681946,418.637756 445.837250,414.783722 449.357544,411.297791 
	C451.062897,409.609100 454.487946,409.083527 455.349152,407.210510 
	C460.289520,396.466003 470.262909,390.119080 477.428802,381.344849 
	C484.570160,372.600647 493.236267,365.097321 501.280823,357.097107 
	C505.159454,353.239838 507.937439,349.198059 507.081512,343.169220 
	C506.455658,338.760895 507.103119,334.185364 506.871765,329.700439 
	C506.786041,328.038025 505.812561,326.421417 505.093048,324.160431 
M726.545288,404.877136 
	C757.632935,404.877136 788.720581,404.877136 819.992798,404.877136 
	C819.992798,395.236420 820.896118,386.187012 819.818237,377.380096 
	C816.937927,353.846985 805.906555,335.246735 783.348206,325.760376 
	C762.152954,316.847229 740.225281,316.961517 719.133911,325.930786 
	C690.437134,338.134247 677.371643,361.431366 676.489380,391.801483 
	C675.811401,415.141357 683.459717,435.378479 701.854370,450.641785 
	C716.013062,462.390228 732.705200,467.695953 750.849121,467.841766 
	C788.338013,468.143127 825.830994,468.016174 863.321289,467.851013 
	C865.377991,467.841980 868.075867,466.390808 869.377136,464.743469 
	C881.718140,449.120758 893.820984,433.309998 906.049500,417.479462 
	C906.388000,417.763214 906.826782,418.017395 907.114624,418.388611 
	C918.130005,432.597168 929.201965,446.762970 940.073059,461.081207 
	C942.148560,463.814880 944.455933,464.651550 947.704651,464.613342 
	C958.533386,464.485931 969.364746,464.592957 980.195068,464.574310 
	C981.712463,464.571686 983.229431,464.368866 985.719666,464.188049 
	C966.792053,439.537933 948.576294,415.814880 930.288757,391.998383 
	C948.425293,369.239410 966.412476,346.667908 985.204224,323.086731 
	C970.536194,323.086731 957.272095,323.011047 944.011902,323.204803 
	C942.697449,323.223999 941.120056,324.652161 940.153015,325.827972 
	C934.759155,332.385864 929.503662,339.057892 924.224121,345.709351 
	C918.069031,353.463928 911.937866,361.237488 905.631287,369.211487 
	C904.196106,366.979095 903.012817,364.788086 901.504761,362.849731 
	C891.893616,350.496613 882.240479,338.175659 872.505188,325.920410 
	C871.552368,324.721039 869.960083,323.256744 868.645081,323.237366 
	C855.232849,323.039886 841.816528,323.116608 827.051697,323.116608 
	C845.801270,346.731781 863.759033,369.349670 881.836121,392.117828 
	C871.468384,405.883636 861.353027,419.496155 850.941101,432.877899 
	C849.810852,434.330627 846.970154,435.083099 844.917725,435.093018 
	C815.091980,435.236633 785.264587,435.311523 755.439697,435.099274 
	C750.015869,435.060669 744.453247,434.217194 739.212524,432.795166 
	C726.584412,429.368591 716.839722,417.670990 715.589233,404.876923 
	C718.939758,404.876923 722.252441,404.876923 726.545288,404.877136 
M134.502823,447.498718 
	C134.502823,453.584778 134.502823,459.670807 134.502823,465.786804 
	C136.188614,465.954468 137.006760,466.107483 137.824799,466.106934 
	C173.978806,466.082336 210.134689,466.221069 246.285004,465.837158 
	C252.459045,465.771606 258.875244,464.193573 264.722168,462.060516 
	C284.764404,454.748810 296.733826,440.137390 299.659149,419.099945 
	C302.552429,398.293091 296.172302,380.623260 278.890625,367.647858 
	C277.755127,366.795258 276.764313,365.750031 276.622589,365.622040 
	C280.461182,357.181610 285.112427,349.819061 287.219818,341.788940 
	C293.813965,316.661896 284.937317,294.453308 260.303589,284.484985 
	C251.238785,280.816803 241.031174,278.550934 231.272430,278.283051 
	C200.638214,277.442108 169.969574,277.850006 139.314209,277.801941 
	C137.888672,277.799713 136.462692,278.065186 134.505737,278.258423 
	C134.505737,334.587097 134.505737,390.543091 134.502823,447.498718 
M561.001160,462.290436 
	C561.008728,440.465363 560.899902,418.639160 561.103699,396.815918 
	C561.156189,391.195129 561.685791,385.474792 562.864441,379.986633 
	C567.753052,357.224518 588.291809,346.870819 609.904419,355.887695 
	C618.265320,359.375946 623.357666,365.493500 625.184570,374.229034 
	C625.927307,377.780396 626.215515,381.484772 626.229248,385.121368 
	C626.323364,410.111603 626.289978,435.102325 626.297607,460.092896 
	C626.298157,461.892548 626.297668,463.692200 626.297668,465.776520 
	C639.296204,465.776520 651.826660,465.776520 664.482300,465.776520 
	C664.612366,464.726196 664.760559,464.087646 664.760742,463.449036 
	C664.768799,433.960236 664.948975,404.469696 664.665771,374.983582 
	C664.558594,363.824921 661.347961,353.378998 654.980225,343.950806 
	C637.986145,318.789246 598.806274,314.900116 575.815369,330.943329 
	C570.432007,334.699860 565.669189,339.345825 560.174927,343.956818 
	C559.002380,337.602936 557.874695,331.492065 556.739136,325.338623 
	C545.446960,325.338623 534.399231,325.338623 523.352356,325.338623 
	C523.352356,372.343170 523.352356,418.914429 523.352356,466.099731 
	C535.305420,466.099731 546.921814,466.158142 558.534546,465.976929 
	C559.367371,465.963959 560.172913,464.198822 561.001160,462.290436 
M354.886627,441.500000 
	C354.886627,402.784424 354.886627,364.068817 354.886627,325.425476 
	C341.737854,325.425476 329.507355,325.425476 317.275513,325.425476 
	C317.275513,372.519867 317.275513,419.218109 317.275513,466.303955 
	C328.832367,466.303955 339.977448,466.262177 351.121796,466.333405 
	C353.890442,466.351135 354.969360,465.269104 354.919922,462.480927 
	C354.801758,455.822510 354.884827,449.160522 354.886627,441.500000 
M322.206757,306.395447 
	C327.782349,310.164642 334.022308,310.666840 340.426880,309.855682 
	C349.154663,308.750275 356.776123,301.605896 358.761932,292.941467 
	C361.000793,283.172821 357.283203,272.337067 350.028931,267.487152 
	C339.152161,260.215363 324.424133,262.114838 317.186340,271.722839 
	C308.960663,282.642303 310.769165,296.766357 322.206757,306.395447 
z"/>
<path fill="#F8FEF9" opacity="1.000000" stroke="none" 
	d="
M726.055176,404.877014 
	C722.252441,404.876923 718.939758,404.876923 715.589233,404.876923 
	C716.839722,417.670990 726.584412,429.368591 739.212524,432.795166 
	C744.453247,434.217194 750.015869,435.060669 755.439697,435.099274 
	C785.264587,435.311523 815.091980,435.236633 844.917725,435.093018 
	C846.970154,435.083099 849.810852,434.330627 850.941101,432.877899 
	C861.353027,419.496155 871.468384,405.883636 881.836121,392.117828 
	C863.759033,369.349670 845.801270,346.731781 827.051697,323.116608 
	C841.816528,323.116608 855.232849,323.039886 868.645081,323.237366 
	C869.960083,323.256744 871.552368,324.721039 872.505188,325.920410 
	C882.240479,338.175659 891.893616,350.496613 901.504761,362.849731 
	C903.012817,364.788086 904.196106,366.979095 905.631287,369.211487 
	C911.937866,361.237488 918.069031,353.463928 924.224121,345.709351 
	C929.503662,339.057892 934.759155,332.385864 940.153015,325.827972 
	C941.120056,324.652161 942.697449,323.223999 944.011902,323.204803 
	C957.272095,323.011047 970.536194,323.086731 985.204224,323.086731 
	C966.412476,346.667908 948.425293,369.239410 930.288757,391.998383 
	C948.576294,415.814880 966.792053,439.537933 985.719666,464.188049 
	C983.229431,464.368866 981.712463,464.571686 980.195068,464.574310 
	C969.364746,464.592957 958.533386,464.485931 947.704651,464.613342 
	C944.455933,464.651550 942.148560,463.814880 940.073059,461.081207 
	C929.201965,446.762970 918.130005,432.597168 907.114624,418.388611 
	C906.826782,418.017395 906.388000,417.763214 906.049500,417.479462 
	C893.820984,433.309998 881.718140,449.120758 869.377136,464.743469 
	C868.075867,466.390808 865.377991,467.841980 863.321289,467.851013 
	C825.830994,468.016174 788.338013,468.143127 750.849121,467.841766 
	C732.705200,467.695953 716.013062,462.390228 701.854370,450.641785 
	C683.459717,435.378479 675.811401,415.141357 676.489380,391.801483 
	C677.371643,361.431366 690.437134,338.134247 719.133911,325.930786 
	C740.225281,316.961517 762.152954,316.847229 783.348206,325.760376 
	C805.906555,335.246735 816.937927,353.846985 819.818237,377.380096 
	C820.896118,386.187012 819.992798,395.236420 819.992798,404.877136 
	C788.720581,404.877136 757.632935,404.877136 726.055176,404.877014 
M739.527710,351.715271 
	C725.799072,355.543640 715.674805,367.113159 716.168579,378.587067 
	C716.759705,378.714386 717.392334,378.968414 718.025696,378.970001 
	C738.133423,379.020874 758.241272,379.016449 778.348755,379.110596 
	C781.364380,379.124725 782.040527,377.622864 781.797668,375.048950 
	C781.016541,366.769897 777.427795,360.147247 770.266235,355.714020 
	C760.932678,349.936218 750.738403,349.996979 739.527710,351.715271 
z"/>
<path fill="#FAFEFB" opacity="1.000000" stroke="none" 
	d="
M134.504272,446.998901 
	C134.505737,390.543091 134.505737,334.587097 134.505737,278.258423 
	C136.462692,278.065186 137.888672,277.799713 139.314209,277.801941 
	C169.969574,277.850006 200.638214,277.442108 231.272430,278.283051 
	C241.031174,278.550934 251.238785,280.816803 260.303589,284.484985 
	C284.937317,294.453308 293.813965,316.661896 287.219818,341.788940 
	C285.112427,349.819061 280.461182,357.181610 276.622589,365.622040 
	C276.764313,365.750031 277.755127,366.795258 278.890625,367.647858 
	C296.172302,380.623260 302.552429,398.293091 299.659149,419.099945 
	C296.733826,440.137390 284.764404,454.748810 264.722168,462.060516 
	C258.875244,464.193573 252.459045,465.771606 246.285004,465.837158 
	C210.134689,466.221069 173.978806,466.082336 137.824799,466.106934 
	C137.006760,466.107483 136.188614,465.954468 134.502823,465.786804 
	C134.502823,459.670807 134.502823,453.584778 134.504272,446.998901 
M174.303452,391.724609 
	C174.306808,403.368317 174.299194,415.012024 174.322723,426.655670 
	C174.327438,428.991302 174.078537,431.411652 177.711731,431.383026 
	C198.500580,431.219238 219.319290,431.792236 240.070648,430.852173 
	C257.816284,430.048279 267.326263,408.968140 257.108704,394.301117 
	C255.324631,391.740143 252.324814,389.523407 249.404114,388.382233 
	C245.622818,386.904816 241.365768,386.055359 237.298935,385.999542 
	C218.672333,385.743896 200.040619,385.859650 181.410751,385.842621 
	C179.292999,385.840698 177.175247,385.842377 174.826920,385.842377 
	C174.616913,387.852264 174.463806,389.317505 174.303452,391.724609 
M224.407379,311.157410 
	C209.600250,311.162201 194.790512,311.322266 179.987595,311.074768 
	C175.693420,311.002991 174.098770,312.091949 174.216812,316.586884 
	C174.496216,327.227295 174.480362,337.884338 174.219070,348.525696 
	C174.114227,352.795227 175.696747,353.840485 179.709534,353.801208 
	C197.343109,353.628632 214.979462,353.759613 232.614731,353.732452 
	C241.793701,353.718323 247.530258,349.208282 250.348389,339.939697 
	C253.420578,329.835510 251.345840,319.680939 243.841156,315.891327 
	C238.296921,313.091675 231.572311,312.629517 224.407379,311.157410 
z"/>
<path fill="#F9FEF9" opacity="1.000000" stroke="none" 
	d="
M560.996094,462.769409 
	C560.172913,464.198822 559.367371,465.963959 558.534546,465.976929 
	C546.921814,466.158142 535.305420,466.099731 523.352356,466.099731 
	C523.352356,418.914429 523.352356,372.343170 523.352356,325.338623 
	C534.399231,325.338623 545.446960,325.338623 556.739136,325.338623 
	C557.874695,331.492065 559.002380,337.602936 560.174927,343.956818 
	C565.669189,339.345825 570.432007,334.699860 575.815369,330.943329 
	C598.806274,314.900116 637.986145,318.789246 654.980225,343.950806 
	C661.347961,353.378998 664.558594,363.824921 664.665771,374.983582 
	C664.948975,404.469696 664.768799,433.960236 664.760742,463.449036 
	C664.760559,464.087646 664.612366,464.726196 664.482300,465.776520 
	C651.826660,465.776520 639.296204,465.776520 626.297668,465.776520 
	C626.297668,463.692200 626.298157,461.892548 626.297607,460.092896 
	C626.289978,435.102325 626.323364,410.111603 626.229248,385.121368 
	C626.215515,381.484772 625.927307,377.780396 625.184570,374.229034 
	C623.357666,365.493500 618.265320,359.375946 609.904419,355.887695 
	C588.291809,346.870819 567.753052,357.224518 562.864441,379.986633 
	C561.685791,385.474792 561.156189,391.195129 561.103699,396.815918 
	C560.899902,418.639160 561.008728,440.465363 560.996094,462.769409 
z"/>
<path fill="#FAFFFB" opacity="1.000000" stroke="none" 
	d="
M354.886627,442.000000 
	C354.884827,449.160522 354.801758,455.822510 354.919922,462.480927 
	C354.969360,465.269104 353.890442,466.351135 351.121796,466.333405 
	C339.977448,466.262177 328.832367,466.303955 317.275513,466.303955 
	C317.275513,419.218109 317.275513,372.519867 317.275513,325.425476 
	C329.507355,325.425476 341.737854,325.425476 354.886627,325.425476 
	C354.886627,364.068817 354.886627,402.784424 354.886627,442.000000 
z"/>
<path fill="#43AC57" opacity="1.000000" stroke="none" 
	d="
M505.243896,324.783936 
	C505.812561,326.421417 506.786041,328.038025 506.871765,329.700439 
	C507.103119,334.185364 506.455658,338.760895 507.081512,343.169220 
	C507.937439,349.198059 505.159454,353.239838 501.280823,357.097107 
	C493.236267,365.097321 484.570160,372.600647 477.428802,381.344849 
	C470.262909,390.119080 460.289520,396.466003 455.349152,407.210510 
	C454.487946,409.083527 451.062897,409.609100 449.357544,411.297791 
	C445.837250,414.783722 442.681946,418.637756 439.368744,422.333374 
	C437.409515,424.518646 435.435425,426.690613 432.777985,429.632477 
	C434.876312,430.478027 436.550446,431.743439 438.217346,431.733948 
	C457.015533,431.626984 475.812775,431.334747 494.609680,431.054077 
	C496.095642,431.031921 497.633453,430.921936 499.051666,430.517700 
	C506.791748,428.311584 509.495667,433.111053 509.793274,438.961670 
	C510.195801,446.875671 509.957275,454.825500 509.885651,462.758972 
	C509.851746,466.514801 507.754120,468.665558 504.037964,468.888977 
	C500.885437,469.078522 497.712250,468.922272 494.548187,468.922607 
	C456.242676,468.927002 417.937134,468.932281 379.631622,468.936890 
	C371.512177,468.937866 370.054413,467.466980 370.060272,459.292664 
	C370.062317,456.461395 370.273376,453.609863 370.010162,450.803070 
	C369.445190,444.777710 371.488434,440.292206 375.639648,435.634125 
	C385.967346,424.045624 397.008759,413.162445 407.556213,401.803284 
	C413.518036,395.382660 419.013519,388.530304 424.940338,382.075562 
	C431.027588,375.446075 437.384308,369.064026 443.623077,362.573700 
	C443.577454,362.031281 443.531830,361.488861 443.486206,360.946442 
	C440.777069,360.680786 438.065491,360.163818 435.359192,360.190155 
	C417.562805,360.363342 399.768066,360.720947 381.971527,360.846588 
	C378.582306,360.870514 375.368073,356.693726 375.474304,353.350708 
	C375.711823,345.873871 375.749756,338.388153 376.143555,330.920563 
	C376.247833,328.943542 377.349701,327.019196 378.433777,324.988708 
	C378.874084,324.906799 379.089386,325.096588 379.001770,325.552185 
	C378.859100,334.500244 379.053894,343.004639 378.649658,351.480469 
	C378.428101,356.126160 380.003601,357.502960 384.534607,357.463196 
	C405.018585,357.283569 425.505066,357.379333 445.990601,357.403381 
	C448.047791,357.405792 450.104767,357.593506 452.970795,357.735229 
	C449.815552,360.433563 447.204346,362.240448 445.110779,364.522217 
	C421.816925,389.910095 398.599335,415.367889 375.382599,440.826385 
	C374.502136,441.791870 373.206512,442.938019 373.176605,444.029358 
	C372.978729,451.251373 373.074280,458.481415 373.074280,465.496735 
	C374.194763,465.762512 374.516724,465.905548 374.838837,465.905823 
	C417.477783,465.942596 460.116730,465.951111 502.755585,466.032593 
	C505.859680,466.038544 506.773132,464.744507 506.717285,461.809326 
	C506.577881,454.483337 506.416748,447.140961 506.760406,439.828461 
	C506.992371,434.892731 505.512115,433.193024 500.329224,433.252563 
	C477.013824,433.520508 453.693634,433.370361 430.375153,433.371002 
	C428.422089,433.371063 426.468994,433.371002 423.481293,433.371002 
	C427.086823,430.206451 429.997650,428.042694 432.444397,425.442261 
	C451.945557,404.715973 471.390137,383.936096 490.776672,363.102509 
	C495.595551,357.923920 502.043304,353.178528 504.285767,346.982941 
	C506.630798,340.504028 504.810638,332.517517 504.918823,325.087921 
	C505.026459,324.985840 505.243896,324.783936 505.243896,324.783936 
z"/>
<path fill="#F5FDF7" opacity="1.000000" stroke="none" 
	d="
M321.892517,306.208984 
	C310.769165,296.766357 308.960663,282.642303 317.186340,271.722839 
	C324.424133,262.114838 339.152161,260.215363 350.028931,267.487152 
	C357.283203,272.337067 361.000793,283.172821 358.761932,292.941467 
	C356.776123,301.605896 349.154663,308.750275 340.426880,309.855682 
	C334.022308,310.666840 327.782349,310.164642 321.892517,306.208984 
z"/>
<path fill="#43AC57" opacity="1.000000" stroke="none" 
	d="
M378.764587,324.814026 
	C379.777893,324.081818 380.900391,322.884186 382.023468,322.883636 
	C420.764862,322.864838 459.506317,322.966888 498.247772,323.007263 
	C499.707703,323.008789 501.191589,322.305634 502.619537,322.433044 
	C503.488495,322.510559 504.271454,323.552002 505.168457,324.472168 
	C505.243896,324.783936 505.026459,324.985840 504.463593,325.051788 
	C462.296936,325.110687 420.693176,325.103638 379.089386,325.096588 
	C379.089386,325.096588 378.874084,324.906799 378.764587,324.814026 
z"/>
<path fill="#43A956" opacity="1.000000" stroke="none" 
	d="
M739.943359,351.609772 
	C750.738403,349.996979 760.932678,349.936218 770.266235,355.714020 
	C777.427795,360.147247 781.016541,366.769897 781.797668,375.048950 
	C782.040527,377.622864 781.364380,379.124725 778.348755,379.110596 
	C758.241272,379.016449 738.133423,379.020874 718.025696,378.970001 
	C717.392334,378.968414 716.759705,378.714386 716.168579,378.587067 
	C715.674805,367.113159 725.799072,355.543640 739.943359,351.609772 
M772.868042,361.642303 
	C768.249756,354.283752 745.432373,350.615051 738.199646,354.638184 
	C729.449341,359.505493 720.674011,364.480927 718.976257,376.046356 
	C723.018311,376.046356 726.284912,376.105438 729.548767,376.036163 
	C743.494324,375.740112 757.442505,375.510895 771.382690,375.046326 
	C779.614014,374.772034 780.610229,372.642303 776.150757,365.654755 
	C775.352722,364.404297 774.323120,363.301697 772.868042,361.642303 
z"/>
<path fill="#26B040" opacity="1.000000" stroke="none" 
	d="
M174.307083,391.253662 
	C174.463806,389.317505 174.616913,387.852264 174.826920,385.842377 
	C177.175247,385.842377 179.292999,385.840698 181.410751,385.842621 
	C200.040619,385.859650 218.672333,385.743896 237.298935,385.999542 
	C241.365768,386.055359 245.622818,386.904816 249.404114,388.382233 
	C252.324814,389.523407 255.324631,391.740143 257.108704,394.301117 
	C267.326263,408.968140 257.816284,430.048279 240.070648,430.852173 
	C219.319290,431.792236 198.500580,431.219238 177.711731,431.383026 
	C174.078537,431.411652 174.327438,428.991302 174.322723,426.655670 
	C174.299194,415.012024 174.306808,403.368317 174.307083,391.253662 
z"/>
<path fill="#29B142" opacity="1.000000" stroke="none" 
	d="
M224.890488,311.141663 
	C231.572311,312.629517 238.296921,313.091675 243.841156,315.891327 
	C251.345840,319.680939 253.420578,329.835510 250.348389,339.939697 
	C247.530258,349.208282 241.793701,353.718323 232.614731,353.732452 
	C214.979462,353.759613 197.343109,353.628632 179.709534,353.801208 
	C175.696747,353.840485 174.114227,352.795227 174.219070,348.525696 
	C174.480362,337.884338 174.496216,327.227295 174.216812,316.586884 
	C174.098770,312.091949 175.693420,311.002991 179.987595,311.074768 
	C194.790512,311.322266 209.600250,311.162201 224.890488,311.141663 
z"/>
<path fill="#F9FEFA" opacity="1.000000" stroke="none" 
	d="
M379.001770,325.552185 
	C420.693176,325.103638 462.296936,325.110687 504.355957,325.153870 
	C504.810638,332.517517 506.630798,340.504028 504.285767,346.982941 
	C502.043304,353.178528 495.595551,357.923920 490.776672,363.102509 
	C471.390137,383.936096 451.945557,404.715973 432.444397,425.442261 
	C429.997650,428.042694 427.086823,430.206451 423.481293,433.371002 
	C426.468994,433.371002 428.422089,433.371063 430.375153,433.371002 
	C453.693634,433.370361 477.013824,433.520508 500.329224,433.252563 
	C505.512115,433.193024 506.992371,434.892731 506.760406,439.828461 
	C506.416748,447.140961 506.577881,454.483337 506.717285,461.809326 
	C506.773132,464.744507 505.859680,466.038544 502.755585,466.032593 
	C460.116730,465.951111 417.477783,465.942596 374.838837,465.905823 
	C374.516724,465.905548 374.194763,465.762512 373.074280,465.496735 
	C373.074280,458.481415 372.978729,451.251373 373.176605,444.029358 
	C373.206512,442.938019 374.502136,441.791870 375.382599,440.826385 
	C398.599335,415.367889 421.816925,389.910095 445.110779,364.522217 
	C447.204346,362.240448 449.815552,360.433563 452.970795,357.735229 
	C450.104767,357.593506 448.047791,357.405792 445.990601,357.403381 
	C425.505066,357.379333 405.018585,357.283569 384.534607,357.463196 
	C380.003601,357.502960 378.428101,356.126160 378.649658,351.480469 
	C379.053894,343.004639 378.859100,334.500244 379.001770,325.552185 
z"/>
<path fill="#21B13B" opacity="1.000000" stroke="none" 
	d="
M773.134277,361.886536 
	C774.323120,363.301697 775.352722,364.404297 776.150757,365.654755 
	C780.610229,372.642303 779.614014,374.772034 771.382690,375.046326 
	C757.442505,375.510895 743.494324,375.740112 729.548767,376.036163 
	C726.284912,376.105438 723.018311,376.046356 718.976257,376.046356 
	C720.674011,364.480927 729.449341,359.505493 738.199646,354.638184 
	C745.432373,350.615051 768.249756,354.283752 773.134277,361.886536 
z"/>
</svg>