<?xml version="1.0" standalone="no"?>
<!DOCTYPE svg PUBLIC "-//W3C//DTD SVG 20010904//EN"
 "http://www.w3.org/TR/2001/REC-SVG-20010904/DTD/svg10.dtd">
<svg version="1.0" xmlns="http://www.w3.org/2000/svg"
 width="512.000000pt" height="512.000000pt" viewBox="0 0 512.000000 512.000000"
 preserveAspectRatio="xMidYMid meet">

<g transform="translate(0.000000,512.000000) scale(0.100000,-0.100000)"
fill="#000000" stroke="none">
<path d="M1542 4670 c-220 -58 -396 -235 -452 -456 -16 -60 -20 -111 -20 -226
l0 -148 -227 0 c-130 0 -244 -5 -266 -11 -21 -6 -56 -26 -77 -45 -107 -97 -89
-267 37 -341 l48 -28 243 -3 242 -4 0 -146 c0 -246 44 -367 185 -508 136 -136
303 -202 486 -191 229 14 426 142 533 347 52 98 66 166 73 342 l6 158 1091 2
1091 3 45 25 c127 72 148 246 40 344 -21 19 -56 39 -77 45 -26 7 -387 11
-1115 11 l-1078 0 0 109 c0 212 -30 331 -117 463 -24 37 -70 90 -101 118 -64
58 -188 122 -277 145 -82 21 -223 18 -313 -5z m278 -438 c31 -19 53 -43 72
-81 l28 -53 0 -469 c0 -402 -2 -475 -16 -507 -33 -79 -110 -132 -194 -132 -88
0 -152 38 -193 115 -21 39 -22 51 -25 499 -3 521 -2 533 66 599 73 71 175 82
262 29z"/>
<path d="M3285 2545 c-196 -43 -351 -162 -440 -336 -51 -100 -65 -166 -72
-341 l-6 -158 -1091 -2 -1091 -3 -48 -28 c-126 -74 -144 -244 -37 -341 21 -19
56 -39 77 -45 26 -7 387 -11 1116 -11 l1077 0 0 -109 c0 -212 31 -334 115
-462 75 -112 182 -194 323 -247 59 -22 83 -26 197 -26 108 -1 142 3 200 21
192 61 354 222 417 413 17 53 22 96 26 237 l4 173 226 0 c129 0 243 5 265 11
21 6 56 26 77 45 108 98 87 272 -40 344 -44 24 -50 25 -287 28 l-243 4 0 146
c0 171 -13 239 -67 350 -54 112 -168 225 -283 281 -137 67 -279 86 -415 56z
m213 -430 c47 -20 78 -50 105 -100 21 -39 22 -52 25 -490 4 -515 2 -534 -60
-601 -102 -111 -281 -86 -343 49 l-25 52 0 470 c0 436 2 473 19 510 20 44 59
84 106 108 39 21 125 21 173 2z"/>
</g>
</svg>
