<svg width="48" height="48" viewBox="0 0 48 48" fill="none" xmlns="http://www.w3.org/2000/svg">
<path d="M13.1807 6.74219H34.499C35.0341 6.74219 35.513 7.07208 35.7109 7.56445L35.7471 7.66504L35.752 7.68359L35.7588 7.7002L41.0049 21.0312L41.0078 21.04L41.0098 21.0488L41.0127 21.0576C41.055 21.2041 41.07 21.3631 41.0557 21.5391L41.0518 21.582L41.0557 21.625C41.0579 21.6494 41.0586 21.6856 41.0586 21.7529V38.9043C41.0541 40.1993 39.9975 41.2548 38.7041 41.2549H9.30469C8.75922 41.254 8.23356 41.0636 7.81543 40.7207L7.64355 40.5654C7.20301 40.1249 6.95524 39.5273 6.9541 38.9043V21.7529C6.95411 21.6963 6.95708 21.637 6.96191 21.5596L6.96582 21.5078L6.95801 21.457C6.9414 21.3405 6.94426 21.2178 6.96582 21.0908L6.99316 20.9629L6.99512 20.9561L6.99805 20.9502L7.00195 20.9385L11.9189 7.70996L11.9258 7.69434L11.9307 7.67676C12.0932 7.12561 12.6057 6.74219 13.1807 6.74219ZM9.54883 38.6543H38.4492V22.0029H30.2832L30.1533 22.3066C29.6932 23.3829 29.0022 24.2815 28.127 24.9453L27.9492 25.0752C26.8555 25.8447 25.4907 26.2598 24.0039 26.2598C21.1783 26.2598 18.9406 24.7928 17.8828 22.3076L17.7529 22.0029H9.54883V38.6543ZM14.0215 9.65234L10.2949 18.7129L10.0107 19.4033H19.9131L19.918 19.6484C19.9375 20.7273 20.2832 21.6847 20.9434 22.4082L21.0791 22.5498C21.8296 23.2894 22.8542 23.6591 23.999 23.6592C25.1743 23.6592 26.1994 23.2659 26.9375 22.5469C27.6298 21.8725 28.0389 20.9416 28.1045 19.8652L28.1133 19.6484L28.1182 19.4033H37.7803L37.4863 18.708L33.6562 9.64746L33.5273 9.3418H14.1484L14.0215 9.65234Z" fill="#0BC166" stroke="#0BC166"/>
</svg>
