<svg width="24" height="24" viewBox="0 0 19 18" fill="none" xmlns="http://www.w3.org/2000/svg">
<g clip-path="url(#clip0_2196_12009)">
<path d="M17.1665 12.0817C17.1664 12.0817 17.1664 12.0817 17.1665 12.0817L10.6855 8.03129C10.5725 7.96067 10.4419 7.92321 10.3087 7.92321H9.75232V7.62099C10.8527 7.31032 11.6615 6.2972 11.6615 5.09875C11.6615 3.65396 10.4861 2.47852 9.04126 2.47852C7.59642 2.47852 6.42102 3.65396 6.42102 5.09875C6.42102 5.49146 6.73937 5.80982 7.13208 5.80982C7.52479 5.80982 7.84314 5.49146 7.84314 5.09875C7.84314 4.43812 8.38058 3.90064 9.04126 3.90064C9.7019 3.90064 10.2393 4.43812 10.2393 5.09875C10.2393 5.75939 9.70186 6.29687 9.04126 6.29687C8.64855 6.29687 8.3302 6.61522 8.3302 7.00793V7.92321H7.77382C7.64059 7.92321 7.51 7.96067 7.397 8.03129L0.916068 12.0817C0.368307 12.4241 0.0412598 13.0141 0.0412598 13.6601C0.0412598 14.6864 0.876248 15.5214 1.90257 15.5214H16.1799C17.2063 15.5214 18.0413 14.6864 18.0413 13.6601C18.0413 13.0141 17.7142 12.4241 17.1665 12.0817V12.0817ZM16.1799 14.0993H1.90257C1.66041 14.0993 1.46338 13.9023 1.46338 13.6601C1.46338 13.5077 1.54054 13.3684 1.66979 13.2876L7.97772 9.34533H10.1048L16.4127 13.2876C16.542 13.3684 16.6191 13.5077 16.6191 13.6601C16.6191 13.9023 16.4221 14.0993 16.1799 14.0993V14.0993Z" fill="#424551"/>
</g>
<defs>
<clipPath id="clip0_2196_12009">
<rect width="18" height="18" fill="white" transform="translate(0.0412598)"/>
</clipPath>
</defs>
</svg>
