<svg width="24" height="24" viewBox="0 0 24 24" fill="none" xmlns="http://www.w3.org/2000/svg">
<path d="M6.00003 4H9.00003C9.00003 4 9.00003 7 12 7C15 7 15 4 15 4H18M18 11V19.4C18 19.5591 17.9368 19.7117 17.8243 19.8243C17.7118 19.9368 17.5592 20 17.4 20H6.60003C6.4409 20 6.28829 19.9368 6.17577 19.8243C6.06324 19.7117 6.00003 19.5591 6.00003 19.4V11M18 4L22.443 5.777C22.5908 5.83615 22.7089 5.95155 22.7716 6.09783C22.8342 6.24411 22.8362 6.40927 22.777 6.557L21.151 10.623C21.1065 10.7343 21.0296 10.8297 20.9303 10.8969C20.831 10.9641 20.7139 11 20.594 11H18M6.00003 4L1.55703 5.777C1.40931 5.83615 1.29113 5.95155 1.22849 6.09783C1.16586 6.24411 1.16389 6.40927 1.22303 6.557L2.84903 10.623C2.89359 10.7343 2.97046 10.8297 3.06974 10.8969C3.16902 10.9641 3.28615 11 3.40603 11H6.00003" stroke="#525252" stroke-linecap="round" stroke-linejoin="round"/>
</svg>
