<svg width="26" height="26" viewBox="0 0 26 26" fill="none" xmlns="http://www.w3.org/2000/svg">
<path d="M10.8333 17.3333V22.75M10.8333 17.3333H15.1666M10.8333 17.3333L9.74996 9.74996M15.1666 17.3333V22.75M15.1666 17.3333L16.25 9.74996M9.74996 9.74996H16.25M9.74996 9.74996C8.30551 9.74996 6.86107 10.4722 5.41663 11.9166M16.25 9.74996C17.6944 9.74996 19.1388 10.4722 20.5833 11.9166M10.8333 4.33329C10.8333 4.90793 11.0616 5.45903 11.4679 5.86536C11.8742 6.27169 12.4253 6.49996 13 6.49996C13.5746 6.49996 14.1257 6.27169 14.532 5.86536C14.9384 5.45903 15.1666 4.90793 15.1666 4.33329C15.1666 3.75866 14.9384 3.20756 14.532 2.80123C14.1257 2.3949 13.5746 2.16663 13 2.16663C12.4253 2.16663 11.8742 2.3949 11.4679 2.80123C11.0616 3.20756 10.8333 3.75866 10.8333 4.33329Z" stroke="black" stroke-linecap="round" stroke-linejoin="round"/>
</svg>
