<svg width="22" height="22" viewBox="0 0 22 22" fill="none" xmlns="http://www.w3.org/2000/svg">
<g clip-path="url(#clip0_2047_8774)">
<path d="M11 2.75C11.6799 2.75 12.3445 2.95161 12.9098 3.32932C13.4751 3.70704 13.9157 4.2439 14.1758 4.87203C14.436 5.50015 14.5041 6.19131 14.3714 6.85812C14.2388 7.52493 13.9114 8.13744 13.4307 8.61818C12.9499 9.09892 12.3374 9.42631 11.6706 9.55895C11.0038 9.69159 10.3126 9.62351 9.68453 9.36334C9.05641 9.10316 8.51954 8.66257 8.14182 8.09727C7.76411 7.53198 7.5625 6.86737 7.5625 6.1875C7.5625 5.27582 7.92466 4.40148 8.56932 3.75682C9.21398 3.11216 10.0883 2.75 11 2.75ZM11 1.375C10.0482 1.375 9.11773 1.65725 8.32632 2.18605C7.53491 2.71486 6.91808 3.46647 6.55383 4.34584C6.18958 5.22521 6.09428 6.19284 6.27997 7.12637C6.46566 8.05991 6.92401 8.91741 7.59705 9.59045C8.27009 10.2635 9.12759 10.7218 10.0611 10.9075C10.9947 11.0932 11.9623 10.9979 12.8417 10.6337C13.721 10.2694 14.4726 9.65259 15.0014 8.86118C15.5303 8.06977 15.8125 7.13932 15.8125 6.1875C15.8125 4.91115 15.3055 3.68707 14.403 2.78455C13.5004 1.88203 12.2764 1.375 11 1.375ZM17.875 20.625H16.5V17.1875C16.5 16.7361 16.4111 16.2891 16.2383 15.872C16.0656 15.455 15.8124 15.076 15.4932 14.7568C15.174 14.4376 14.795 14.1844 14.378 14.0117C13.9609 13.8389 13.5139 13.75 13.0625 13.75H8.9375C8.02582 13.75 7.15148 14.1122 6.50682 14.7568C5.86216 15.4015 5.5 16.2758 5.5 17.1875V20.625H4.125V17.1875C4.125 15.9111 4.63203 14.6871 5.53455 13.7845C6.43707 12.882 7.66115 12.375 8.9375 12.375H13.0625C14.3389 12.375 15.5629 12.882 16.4655 13.7845C17.368 14.6871 17.875 15.9111 17.875 17.1875V20.625Z" fill="#525252"/>
</g>
<defs>
<clipPath id="clip0_2047_8774">
<rect width="22" height="22" fill="white"/>
</clipPath>
</defs>
</svg>
